# xmcd
#
# Track frame offsets: 
#        150
#        18562
#        36321
#        53212
#        74119
#        94830
#        109668
#        123308
#        141804
#        164503
#        181387
#        196015
#        213018
#        233946
#        253819
#        272719
#        293944
#        312850
#
# Disc length: 4377 seconds
#
# Revision: 1
# Processed by: cddbd v1.5.2PL0 Copyright (c) Steve Scherf et al.
# Submitted via: ExactAudioCopy v0.99pb4
#
DISCID=11111712
DTITLE=Dionne Warwick - All The Love In The World [CD2)
DYEAR=2007
DGENRE=Soul
TTITLE0=Friends In love (With Johnny Mathis)
TTITLE1=Take The Short Way Home
TTITLE2=We Never Said Goodbye
TTITLE3=Where My Lips Have Been
TTITLE4=Whisper In The Dark
TTITLE5=Who What When Where Why
TTITLE6=You'd Be so Nice To Come Home To
TTITLE7=Alfie (Live)
TTITLE8=For You
TTITLE9=So Amazing
TTITLE10=The Letter
TTITLE11=In Your Eyes
TTITLE12=Take Good Care Of You And Me (With Jeffrey Osborne)
TTITLE13=Reservations For Two (With Kashif)
TTITLE14=Another Chance To Love (With Howard Hewitt)
TTITLE15=Finder Of Lost Loves (Wizh Glenn Jones)
TTITLE16=Sunny Weather Lover
TTITLE17=How Many Times Can We Say Goodbye (With Luther Wandross)
EXTD=My name is Dina Jalkanen and this is a very nice collection album
EXTD=of Dionne Warwick [CD2).
EXTT0=
EXTT1=
EXTT2=
EXTT3=
EXTT4=
EXTT5=
EXTT6=
EXTT7=
EXTT8=
EXTT9=
EXTT10=
EXTT11=
EXTT12=
EXTT13=
EXTT14=
EXTT15=
EXTT16=
EXTT17=
PLAYORDER=
